<?xml version="1.0" encoding="UTF-8"?>
<svg id="Layer_1" xmlns="http://www.w3.org/2000/svg" version="1.1" viewBox="0 0 1060.23 180.69">
  <!-- Generator: Adobe Illustrator 29.6.1, SVG Export Plug-In . SVG Version: 2.1.1 Build 9)  -->
  <defs>
    <style>
      .st0 {
        fill: #fea00c;
      }

      .st1 {
        fill: #0c5577;
      }
    </style>
  </defs>
  <g>
    <path class="st0" d="M1038.98,71.11h-79.54c-1.25,0-1.87,1.51-.99,2.39l5.65,5.65c.88.88.26,2.39-.99,2.39h-96.57c-1.68,0-1.94,2.41-.3,2.77l126.54,27.48c1.28.28,2.21-1.21,1.4-2.24l-5.24-6.64c-.73-.92-.07-2.27,1.1-2.27h44.75c.69,0,1.28-.5,1.38-1.18l4.19-26.74c.13-.85-.52-1.62-1.38-1.62h0Z"/>
    <path class="st1" d="M1043.49,144.96l-3.74,27.83c-.09.69-.69,1.21-1.39,1.21h-124.2c-.85,0-1.5-.75-1.39-1.59l8.99-66.77c.11-.81.88-1.35,1.68-1.18l36.92,7.88c.73.16,1.21.85,1.09,1.59l-4.43,27.82c-.14.85.52,1.62,1.38,1.62h83.71c.85,0,1.5.75,1.39,1.59h-.01Z"/>
    <path class="st1" d="M1060.22,1.59l-3.74,27.83c-.09.69-.69,1.21-1.39,1.21h-81.15c-.69,0-1.28.5-1.38,1.19l-4.86,31.56c-.11.7-.72,1.21-1.43,1.19l-24.38-.81c-1.38-.05-1.98,1.72-.87,2.53l6.56,4.8c1.09.8.53,2.53-.83,2.53h-18.06c-.85,0-1.5-.75-1.39-1.58l9.41-70.82C936.8.52,937.4,0,938.1,0h120.72c.85,0,1.5.75,1.39,1.59h.01Z"/>
  </g>
  <g>
    <path class="st0" d="M25.03,155.91h-10.33c-.16,0-.24.21-.13.34l.73.8c.11.13.03.34-.13.34H2.64c-.22,0-.25.34-.04.39l16.43,3.91c.17.04.29-.17.18-.32l-.68-.94c-.09-.13,0-.32.14-.32h5.81c.09,0,.17-.07.18-.17l.54-3.8c.02-.12-.07-.23-.18-.23h.01Z"/>
    <g>
      <path class="st1" d="M28.51,85.67c1.03,0,1.91-.38,2.64-1.13.73-.75,1.1-1.62,1.1-2.61s-.37-1.86-1.1-2.61c-.73-.75-1.62-1.13-2.64-1.13s-1.95.36-2.67,1.07c-.72.72-1.07,1.61-1.07,2.67s.36,1.91,1.07,2.64c.72.73,1.6,1.1,2.67,1.1Z"/>
      <path class="st1" d="M19.54,85.67c1.03,0,1.91-.38,2.64-1.13.73-.75,1.1-1.62,1.1-2.61s-.37-1.86-1.1-2.61c-.73-.75-1.62-1.13-2.64-1.13s-1.95.36-2.67,1.07c-.72.72-1.07,1.61-1.07,2.67s.36,1.91,1.07,2.64c.72.73,1.6,1.1,2.67,1.1Z"/>
      <path class="st1" d="M42.71,88.92h-9.36v2.92c.4,0,.74.15,1.02.44.27.29.41.64.41,1.05v15.19H11.94v-13.32c0-.77.28-1.44.85-2.01s1.24-.85,2.01-.85h.06l.06-3.41H3.96v26.25h38.75v-26.25Z"/>
      <path class="st1" d="M50.91,115.17h27.69v-37.87h-9.74v2.81c.4,0,.75.15,1.05.44.29.29.44.64.44,1.05v26.91h-1.76l-6.77-7.43v-23.72h-9.63l-.05,2.81c.4.04.75.2,1.05.5.29.29.44.64.44,1.05l.06,20.09,5.72,6.71h-9.3l.83,6.66Z"/>
      <path class="st1" d="M82.06,115.22h16.18v3.52c0,1.14-.36,2.15-1.07,3.03-.72.88-1.62,1.32-2.72,1.32l1.71,3.58c1.39.04,2.7-.22,3.91-.77,1.21-.55,2.27-1.28,3.19-2.2.92-.92,1.64-1.94,2.17-3.05.53-1.12.8-2.21.8-3.28v-28.34h-24.16v26.2ZM90.1,95.74h8.15v12.77h-8.15v-12.77Z"/>
      <path class="st1" d="M142.61,82.15c0,1.03.35,1.89,1.05,2.59.7.7,1.56,1.05,2.59,1.05s1.9-.35,2.61-1.05c.72-.7,1.07-1.56,1.07-2.59s-.36-1.9-1.07-2.61c-.72-.71-1.59-1.07-2.61-1.07s-1.89.36-2.59,1.07c-.7.72-1.05,1.59-1.05,2.61Z"/>
      <path class="st1" d="M138.04,85.78c.99,0,1.84-.35,2.56-1.05.72-.7,1.07-1.56,1.07-2.59s-.36-1.9-1.07-2.61c-.72-.71-1.57-1.07-2.56-1.07s-1.89.36-2.59,1.07c-.7.72-1.05,1.59-1.05,2.61s.35,1.89,1.05,2.59c.7.7,1.56,1.05,2.59,1.05Z"/>
      <path class="st1" d="M186.7,115.17h35.23v-37.87h-9.69v2.81c.4,0,.75.15,1.05.44.29.29.44.64.44,1.05v26.91h-8.81v-31.21h-9.69v2.81c.4,0,.75.15,1.05.44.29.29.44.64.44,1.05v26.91h-10.02v-19.59h-23.23v15.19c0,1.29-.45,2.35-1.35,3.19-.9.84-1.99,1.27-3.27,1.27h-4.95v-19.65h-23.28v14.37c0,1.8.4,3.54,1.21,5.23h-9.47v-31.21h-9.85v2.86c.37,0,.72.14,1.05.41.33.28.5.63.5,1.07v33.52h41.94c1.98,0,3.85-.35,5.61-1.05,1.76-.7,3.34-1.67,4.73-2.92,1.06,1.21,2.35,2.17,3.85,2.89,1.5.72,3.14,1.07,4.9,1.07h11.61ZM146.02,108.51h-3.8c-1.03,0-1.91-.37-2.64-1.1-.73-.73-1.1-1.63-1.1-2.7v-9.52h7.54v13.32ZM178.82,108.73h-3.74c-1.06,0-1.95-.36-2.67-1.07-.72-.72-1.07-1.61-1.07-2.67v-9.47h7.49v13.21Z"/>
      <path class="st1" d="M248.95,85.45c1.03,0,1.92-.37,2.67-1.1.75-.73,1.13-1.63,1.13-2.7s-.38-1.96-1.13-2.7c-.75-.73-1.64-1.1-2.67-1.1s-1.95.37-2.67,1.1c-.72.74-1.07,1.63-1.07,2.7s.36,1.96,1.07,2.7c.72.73,1.6,1.1,2.67,1.1Z"/>
      <path class="st1" d="M257.37,85.45c1.06,0,1.95-.37,2.67-1.1.72-.73,1.07-1.63,1.07-2.7s-.36-1.96-1.07-2.7c-.72-.73-1.61-1.1-2.67-1.1s-1.96.37-2.7,1.1c-.73.74-1.1,1.63-1.1,2.7s.37,1.96,1.1,2.7c.73.73,1.63,1.1,2.7,1.1Z"/>
      <path class="st1" d="M267.55,92.6c0-.4.15-.74.44-1.02.29-.27.64-.41,1.05-.41v-2.75h-9.58v2.92c-.22-.18-.52-.41-.91-.69s-.85-.55-1.4-.83c-.55-.28-1.18-.5-1.9-.69-.72-.18-1.51-.28-2.39-.28h-14.15v26.25h28.84v-22.51ZM259.46,108.51h-11.78v-12.88h8.37c.84,0,1.59.28,2.23.83.64.55,1.04,1.25,1.18,2.09v9.96Z"/>
      <path class="st1" d="M353.25,85.83c1.03,0,1.91-.38,2.64-1.13.73-.75,1.1-1.62,1.1-2.61s-.37-1.86-1.1-2.61c-.73-.75-1.62-1.13-2.64-1.13s-1.95.36-2.67,1.07c-.72.71-1.07,1.61-1.07,2.67s.36,1.91,1.07,2.64c.72.73,1.6,1.1,2.67,1.1Z"/>
      <path class="st1" d="M344.33,85.83c1.03,0,1.91-.38,2.64-1.13.73-.75,1.1-1.62,1.1-2.61s-.37-1.86-1.1-2.61c-.73-.75-1.62-1.13-2.64-1.13s-1.95.36-2.67,1.07-1.07,1.61-1.07,2.67.36,1.91,1.07,2.64c.72.73,1.61,1.1,2.67,1.1Z"/>
      <path class="st1" d="M394.03,80.11c.4,0,.75.15,1.05.44.29.29.44.64.44,1.05v26.91h-8.81v-19.59h-23.23v15.19c0,1.29-.45,2.35-1.35,3.19-.9.84-1.99,1.27-3.28,1.27h-5.01v-19.65h-9.74v2.81c.4,0,.75.15,1.05.44.29.29.44.64.44,1.05v15.3h-9.08v-19.59h-27.25l.06,10.35,3.52-.06v-.05h.05c0-.95.35-1.77,1.05-2.45.7-.68,1.52-1.02,2.48-1.02h11.94v12.77h-27.85v-19.59h-23.61l.05,10.35h3.52v-.05c0-.95.35-1.78,1.05-2.48.7-.7,1.52-1.05,2.48-1.05h8.42v12.93h-15.91v6.6h22.46v.05h37.54v-.05h19.48c1.98,0,3.85-.35,5.61-1.05,1.76-.7,3.34-1.67,4.73-2.92,1.06,1.21,2.35,2.17,3.85,2.89s3.14,1.07,4.9,1.07h28.62v-37.87h-9.69v2.81ZM378.84,108.73h-3.74c-1.07,0-1.95-.36-2.67-1.07-.72-.72-1.07-1.61-1.07-2.67v-9.47h7.49v13.21Z"/>
      <path class="st1" d="M411.7,81.65v33.52h8.31v-37.87h-9.85v2.86c.37,0,.72.14,1.05.41s.5.63.5,1.07Z"/>
      <path class="st1" d="M455.18,86c1.03,0,1.9-.36,2.61-1.07.72-.72,1.07-1.59,1.07-2.61s-.36-1.95-1.07-2.67-1.59-1.07-2.61-1.07-1.85.36-2.59,1.07c-.73.72-1.1,1.61-1.1,2.67s.37,1.9,1.1,2.61c.73.71,1.6,1.07,2.59,1.07Z"/>
      <path class="st1" d="M472.3,88.64h-9.36v3.03c.4,0,.74.14,1.02.41.28.27.41.61.41,1.02v15.52h-19.98v-13.54c0-.77.28-1.45.83-2.04.55-.59,1.23-.86,2.04-.83l.05-3.41h-10.95v26.36h35.94v-26.53Z"/>
      <path class="st1" d="M480.11,81.65v33.52h78.54v-37.87h-9.69v2.81c.4,0,.75.15,1.05.44.29.29.44.64.44,1.05v26.91h-8.75v-19.54h-9.8v2.81c.4,0,.75.15,1.05.44.29.29.44.64.44,1.05v15.25h-9.3v-19.59h-9.85v2.81c.4,0,.75.15,1.05.44.29.29.44.64.44,1.05v15.3h-9.25v-19.59h-9.74v2.81c.4,0,.75.15,1.05.44.29.29.44.64.44,1.05v15.3h-9.8v-31.21h-9.85v2.86c.37,0,.72.14,1.05.41s.5.63.5,1.07Z"/>
      <path class="st1" d="M509.29,119.33c-.73-.75-1.61-1.13-2.64-1.13s-1.95.36-2.67,1.07c-.72.72-1.07,1.6-1.07,2.67s.36,1.91,1.07,2.64c.71.73,1.6,1.1,2.67,1.1s1.91-.38,2.64-1.13c.73-.75,1.1-1.62,1.1-2.62s-.37-1.86-1.1-2.61Z"/>
      <path class="st1" d="M497.67,118.2c-1.06,0-1.95.36-2.67,1.07-.72.72-1.07,1.6-1.07,2.67s.36,1.91,1.07,2.64c.71.73,1.6,1.1,2.67,1.1s1.91-.38,2.64-1.13c.73-.75,1.1-1.62,1.1-2.62s-.37-1.86-1.1-2.61c-.73-.75-1.62-1.13-2.64-1.13Z"/>
      <path class="st1" d="M519.74,85.89c1.06,0,1.97-.38,2.72-1.13s1.13-1.66,1.13-2.72-.38-1.97-1.13-2.72-1.66-1.13-2.72-1.13-1.97.38-2.72,1.13-1.13,1.66-1.13,2.72.38,1.97,1.13,2.72,1.66,1.13,2.72,1.13Z"/>
      <path class="st1" d="M534.69,119.49c-.75.75-1.13,1.66-1.13,2.72s.38,1.97,1.13,2.72,1.66,1.13,2.72,1.13,1.97-.38,2.72-1.13,1.13-1.66,1.13-2.72-.38-1.97-1.13-2.72-1.66-1.13-2.72-1.13-1.97.38-2.72,1.13Z"/>
      <path class="st1" d="M566.64,81.65v33.52h8.31v-37.87h-9.85v2.86c.37,0,.72.14,1.05.41s.5.63.5,1.07Z"/>
      <path class="st1" d="M591.46,108.84v9.96c0,1.1-.37,2.09-1.1,2.97-.73.88-1.65,1.32-2.75,1.32l1.71,3.58c1.39.04,2.7-.23,3.91-.8,1.21-.57,2.27-1.3,3.19-2.2.92-.9,1.64-1.9,2.17-3,.53-1.1.8-2.18.8-3.25v-28.51h-9.36v3.03c.37,0,.7.14.99.41.29.28.44.62.44,1.02v15.47Z"/>
      <path class="st1" d="M669.89,108.01c-.84-.37-1.58-.86-2.2-1.49-.62-.62-1.11-1.35-1.46-2.17-.35-.83-.52-1.71-.52-2.67v-6.05h9.14c.95,0,1.78.35,2.48,1.05s1.05,1.52,1.05,2.48h3.52l.06-10.29h-24.38v12.22c0,2.72.71,5.21,2.15,7.49h-11.06v-19.65h-23.23v15.19c0,1.29-.45,2.35-1.35,3.19-.9.84-1.99,1.27-3.28,1.27h-4.95v-31.26h-9.85v2.86c.37,0,.72.14,1.05.41s.5.63.5,1.07v33.52h10.4c1.98,0,3.85-.35,5.61-1.05,1.76-.7,3.34-1.67,4.73-2.92,1.06,1.21,2.35,2.17,3.85,2.89s3.14,1.07,4.9,1.07h45.35v-6.6h-9.8c-.95,0-1.85-.18-2.7-.55ZM640.78,108.73h-3.74c-1.07,0-1.95-.36-2.67-1.07-.72-.72-1.07-1.61-1.07-2.67v-9.47h7.49v13.21Z"/>
      <path class="st1" d="M690.53,81.54v33.63h8.2v-37.98h-9.69v2.86c.4,0,.75.14,1.04.41.29.28.44.63.44,1.07Z"/>
      <path class="st1" d="M696.37,119.68c.37,0,.66.14.88.41.22.28.33.56.33.85h1.32v-3.69h-8.04v6.38h-1.76v2.31h9.91v-2.31h-5.23v-3.96h2.59Z"/>
      <path class="st1" d="M725.87,85.45c1.03,0,1.92-.37,2.67-1.1.75-.73,1.13-1.63,1.13-2.7s-.38-1.96-1.13-2.7c-.75-.73-1.64-1.1-2.67-1.1s-1.95.37-2.67,1.1c-.71.74-1.07,1.63-1.07,2.7s.36,1.96,1.07,2.7c.72.73,1.61,1.1,2.67,1.1Z"/>
      <path class="st1" d="M734.29,85.45c1.06,0,1.95-.37,2.67-1.1.71-.73,1.07-1.63,1.07-2.7s-.36-1.96-1.07-2.7c-.72-.73-1.61-1.1-2.67-1.1s-1.96.37-2.7,1.1-1.1,1.63-1.1,2.7.37,1.96,1.1,2.7c.73.73,1.63,1.1,2.7,1.1Z"/>
      <path class="st1" d="M771.66,85.61c.18-.18.4-.28.66-.28.4,0,.77.18,1.1.55l1.93-1.98-6.83-6.6-14.59,14.97-.11,6.22h28.01v10.13h-37.37v-16.02c0-.4.15-.74.44-1.02.29-.27.64-.41,1.05-.41v-2.75h-9.58v2.92c-.22-.18-.52-.41-.91-.69s-.85-.55-1.4-.83c-.55-.28-1.18-.5-1.9-.69-.71-.18-1.51-.28-2.39-.28h-14.15v26.25h27.52v.05s46.73,0,46.73,0v-23.39h-24.11l5.89-6.17ZM736.38,108.51h-11.78v-12.88h8.37c.84,0,1.59.28,2.23.83.64.55,1.04,1.25,1.18,2.09v9.96Z"/>
      <path class="st1" d="M799.4,112.25v6.55c0,1.1-.37,2.09-1.1,2.97-.73.88-1.65,1.32-2.75,1.32l1.71,3.58c1.39.04,2.7-.23,3.91-.8,1.21-.57,2.27-1.3,3.19-2.2.92-.9,1.64-1.9,2.17-3,.53-1.1.8-2.18.8-3.25v-2.26h20.81c1.47,0,2.86-.26,4.18-.77,1.32-.51,2.48-1.21,3.47-2.09,1.03.88,2.19,1.58,3.5,2.09,1.3.51,2.71.77,4.21.77h11.67v-26.2h-9.36v2.92c.4-.04.74.08,1.02.36s.41.61.41,1.02v15.19h-3.74c-1.06,0-1.96-.36-2.7-1.07-.73-.72-1.1-1.6-1.1-2.67v-15.74h-9.3v2.92c.4-.04.74.08,1.02.36s.41.61.41,1.02v11.45c0,1.07-.35,1.95-1.05,2.67s-1.58,1.07-2.64,1.07h-3.8v-19.59h-9.3v3.03c.4-.04.73.08.99.36.26.27.38.61.38,1.02v15.19h-9.08v-19.54h-9.36v3.03c.37,0,.7.14.99.41.29.28.44.62.44,1.02v18.88Z"/>
      <path class="st1" d="M835.89,82.2c0,1.03.37,1.91,1.1,2.64.73.73,1.63,1.1,2.7,1.1s1.91-.38,2.64-1.13c.73-.75,1.1-1.62,1.1-2.61s-.37-1.92-1.1-2.67c-.73-.75-1.62-1.13-2.64-1.13s-1.96.37-2.7,1.1-1.1,1.63-1.1,2.7Z"/>
      <path class="st1" d="M835.18,78.73c1.03,0,1.91-.38,2.64-1.13.73-.75,1.1-1.64,1.1-2.67s-.37-1.86-1.1-2.61c-.73-.75-1.62-1.13-2.64-1.13s-1.95.36-2.67,1.07c-.72.71-1.07,1.61-1.07,2.67s.36,1.92,1.07,2.67c.71.75,1.6,1.13,2.67,1.13Z"/>
      <path class="st1" d="M830.72,85.94c1.03,0,1.91-.38,2.64-1.13s1.1-1.62,1.1-2.61-.37-1.92-1.1-2.67c-.73-.75-1.61-1.13-2.64-1.13s-1.96.37-2.7,1.1c-.73.73-1.1,1.63-1.1,2.7s.37,1.91,1.1,2.64c.73.73,1.63,1.1,2.7,1.1Z"/>
      <path class="st1" d="M25.43,166.18h-10.87c-.11,0-.2-.11-.18-.23l.58-3.96c.02-.11-.05-.21-.14-.23l-4.79-1.12c-.11-.02-.21.06-.22.17l-1.17,9.5c-.01.12.07.23.18.23h16.13c.09,0,.17-.07.18-.17l.49-3.96h-.01c.01-.12-.07-.23-.18-.23Z"/>
      <path class="st1" d="M27.6,145.8h-15.68c-.09,0-.17.07-.18.17l-1.22,10.07c-.01.12.07.23.18.23h2.34c.18,0,.25-.25.11-.36l-.85-.68c-.15-.12-.07-.36.11-.36l3.17.11c.1,0,.18-.07.19-.17l.63-4.49c0-.1.09-.17.18-.17h10.54c.09,0,.17-.07.18-.17l.49-3.96h0c0-.11-.07-.22-.18-.22Z"/>
      <path class="st1" d="M55.79,152c-3.2,0-4.9,1.52-6.06,3.02-.39-1.58-1.37-3.02-4.27-3.02-2.55,0-4.07,1.21-5.25,2.73.14-.88.24-1.75.27-2.23h-4.89c-.23,1.44-.58,3.38-.9,5.11v-.02s-2.55,13.17-2.55,13.17h4.98l1.8-9.37c.54-2.84,1.76-4.98,3.98-4.98,2.34,0,2.2,2.2,1.86,3.88l-2.02,10.48h5.01l1.87-9.63c.58-3.03,1.77-4.72,3.87-4.72,2.32,0,2.24,2.2,1.9,3.89l-2.01,10.47h4.95l2.13-11.04c.97-5.02-.79-7.74-4.67-7.74Z"/>
      <path class="st1" d="M74.99,152.01c-6.18,0-8.02,3.13-8.6,5.8h5.16c.41-1.3,1.39-2.01,3.33-2.01,2.47,0,3.13,1.26,2.82,2.76l-.07.36c-1.15.03-2.97.06-4.27.2-4.21.43-9.1,1.54-9.1,6.82,0,2.3,1.31,5.34,5.65,5.34,3.01,0,4.77-1.08,5.88-2.7-.12.58-.24,1.63-.24,2.21h4.93c.07-.79.37-2.47.86-4.93h-.02l1.22-6.24c.74-3.7-.21-7.61-7.55-7.61ZM76.92,162.62c-.72,3.14-2.37,4.53-5.12,4.53-1.59,0-2.36-.75-2.36-1.81,0-2.02,2.28-2.52,4.05-2.71,1.05-.11,2.26-.18,3.47-.21l-.04.2Z"/>
      <path class="st1" d="M96.92,152.01c-6.18,0-8.02,3.13-8.6,5.8h5.16c.41-1.3,1.39-2.01,3.33-2.01,2.47,0,3.13,1.26,2.82,2.76l-.07.36c-1.15.03-2.97.06-4.27.2-4.21.43-9.1,1.54-9.1,6.82,0,2.3,1.31,5.34,5.65,5.34,3.01,0,4.77-1.08,5.88-2.7-.12.58-.24,1.63-.24,2.21h4.93c.07-.79.37-2.47.86-4.93h-.02l1.22-6.24c.74-3.7-.21-7.61-7.55-7.61ZM98.85,162.62c-.72,3.14-2.37,4.53-5.12,4.53-1.59,0-2.36-.75-2.36-1.81,0-2.02,2.28-2.52,4.05-2.71,1.05-.11,2.26-.18,3.47-.21l-.04.2Z"/>
      <path class="st1" d="M116.14,156.05c.25-1.25.46-2.84.52-3.55h-4.83c-.23,1.62-.64,3.56-.99,5.39h-.01l-2.48,12.9h5.07l1.15-6.08c1.05-5.61,3.37-7.26,6.77-7.21l1.19-5.38c-2.96-.03-4.92,1.05-6.39,3.93Z"/>
      <path class="st1" d="M146.19,145.87l-13.54,24.92h5.56l3.21-5.74h9.55l.96,5.74h5.35l-4.39-24.92h-6.7ZM143.65,160.38c2.52-4.98,4.26-8.47,5.12-10.47h.03c.14,1.87.66,5.16,1.47,10.47h-6.62Z"/>
      <polygon class="st1" points="161.47 170.79 166.48 170.79 171.56 144.44 166.55 144.44 161.47 170.79"/>
      <path class="st1" d="M206.78,152.01c0-3.61-2.38-6.15-7.36-6.15h-10.94l-4.82,24.92h12.28c4.51,0,9.66-1.72,9.69-7.83,0-2.53-1.49-4.3-3.15-5.02,2.66-.87,4.3-2.95,4.3-5.92ZM195.78,166.3h-6.1l1.19-6.2h5.63c2.53,0,3.64,1.15,3.64,2.84,0,2.48-1.71,3.36-4.36,3.36ZM197.5,155.62h-5.77l1.03-5.24h5.51c1.97,0,2.98.84,2.98,2.45,0,2.17-1.56,2.79-3.75,2.79Z"/>
      <path class="st1" d="M222.47,160.59c-.71,3.7-2.06,6.31-4.97,6.31-2.06,0-2.33-1.55-1.81-4.26l1.97-10.14h-5.01l-2.21,11.31c-1,5.22,1.33,7.47,4.86,7.47s4.53-1.28,5.59-2.61c-.12.84-.24,1.68-.27,2.12h4.95c.23-1.49.55-3.28.87-4.9h.01s2.6-13.38,2.6-13.38h-5.01l-1.57,8.08Z"/>
      <path class="st1" d="M245.5,152.02c-3.24,0-4.94,1.61-5.86,2.88.11-.63.28-1.86.33-2.39h-4.95c-.26,1.42-.55,3.06-.84,4.61v.02l-2.61,13.67h5.01l1.66-8.83c.67-3.55,2.22-5.53,4.66-5.53s2.64,1.79,2.25,3.88l-2,10.47h5.04l2.12-10.92c1.05-5.5-1.19-7.86-4.81-7.86Z"/>
      <path class="st1" d="M261.86,166.54h-.09c-.18-2.03-.72-6.79-1.91-14.04h-5.18l3.71,19.35c-.89,1.66-1.8,2.49-3.53,2.49-.82,0-1.45-.08-2.04-.19l-.93,4.52c.77.2,2.41.35,3.14.35,4.95,0,6.19-2.05,10.23-9.88l8.65-16.64h-5.46c-3.47,7.37-5.74,12.15-6.59,14.04Z"/>
      <path class="st1" d="M284.68,152.01c-6.18,0-8.02,3.13-8.6,5.8h5.16c.41-1.3,1.39-2.01,3.33-2.01,2.47,0,3.13,1.26,2.82,2.76l-.07.36c-1.15.03-2.97.06-4.27.2-4.21.43-9.1,1.54-9.1,6.82,0,2.3,1.31,5.34,5.65,5.34,3.01,0,4.77-1.08,5.88-2.7-.12.58-.24,1.63-.24,2.21h4.93c.07-.79.37-2.47.86-4.93h-.02l1.22-6.24c.74-3.7-.21-7.61-7.55-7.61ZM286.61,162.62c-.72,3.14-2.37,4.53-5.12,4.53-1.59,0-2.36-.75-2.36-1.81,0-2.02,2.28-2.52,4.05-2.71,1.05-.11,2.26-.18,3.47-.21l-.04.2Z"/>
      <path class="st1" d="M310.08,152.02c-3.24,0-4.94,1.61-5.86,2.88.11-.63.28-1.86.33-2.39h-4.95c-.26,1.42-.55,3.06-.84,4.61v.02l-2.61,13.67h5.01l1.66-8.83c.67-3.55,2.22-5.53,4.66-5.53s2.64,1.79,2.25,3.88l-2,10.47h5.04l2.12-10.92c1.05-5.5-1.19-7.86-4.81-7.86Z"/>
      <path class="st1" d="M346.82,160.22c-1.07,5.53-2.78,6.57-5.87,6.57-2.84,0-5.15-1.41-4.12-6.61l2.79-14.32h-5.2l-2.74,14.03c-1.77,9.13,3.33,11.42,8.59,11.42,7.02,0,10.06-2.63,11.64-10.7l2.88-14.75h-5.17l-2.8,14.36Z"/>
      <path class="st1" d="M369.81,152.02c-3.24,0-4.94,1.61-5.86,2.88.11-.63.28-1.86.33-2.39h-4.95c-.26,1.42-.55,3.06-.84,4.61v.02l-2.61,13.67h5.01l1.66-8.83c.67-3.55,2.22-5.53,4.66-5.53s2.64,1.79,2.25,3.88l-2,10.47h5.04l2.12-10.92c1.05-5.5-1.19-7.86-4.81-7.86Z"/>
      <polygon class="st1" points="378.55 170.78 383.56 170.78 387.1 152.5 382.09 152.5 378.55 170.78"/>
      <polygon class="st1" points="382.73 149.06 387.77 149.06 388.65 144.44 383.61 144.44 382.73 149.06"/>
      <path class="st1" d="M400.3,147.01h-5.04l-1.11,5.49h-2.89l-.78,4.03h2.89l-1.74,8.88c-.67,3.53.39,5.52,4.34,5.52,1.19,0,2.37-.14,3.28-.42l.75-3.9c-.46.11-1.3.15-1.8.15-1.56,0-1.64-.74-1.33-2.3l1.54-7.93h3.7l.78-4.03h-3.7l1.11-5.49Z"/>
      <path class="st1" d="M414.97,152.01c-7.02,0-10.19,5.91-10.19,10.94,0,4.55,2.41,8.33,7.95,8.33,5.21,0,7.92-2.8,9.04-5.92h-5.22c-.68,1.08-1.51,1.73-3.43,1.73-2.39,0-3.39-1.62-3.39-3.66v-.51h12.69c.34-1.16.43-2.02.43-3.11,0-4.27-2.37-7.8-7.88-7.8ZM418.02,159.45h0s-7.56.01-7.56.01c.5-2.04,1.86-3.53,4.23-3.53,2.24,0,3.33,1.23,3.33,3.15v.37Z"/>
      <path class="st1" d="M441.63,154.36c-.41-.92-1.9-2.36-5.23-2.36-5.76,0-9.62,5.21-9.62,11.13,0,4.77,2.53,8.15,6.7,8.15,3.04,0,4.38-1.04,5.41-2.34-.12.66-.19,1.41-.23,1.85h4.88c.29-1.7.59-3.37.91-5.07l4.11-21.28h-5.02l-1.91,9.92ZM440.35,161.95c-.51,2.86-2.03,4.89-4.92,4.89-2.2,0-3.41-1.65-3.41-4.19,0-3.32,1.79-6.23,4.86-6.23s4.11,1.95,3.47,5.53Z"/>
      <path class="st1" d="M474.52,149.84c3.53,0,4.51,2.63,4.69,4.25h5.57c-.26-5.11-3.79-8.76-9.79-8.76-8.4,0-13.32,7.28-13.32,15.17,0,6.31,3.22,10.82,10.24,10.82,6.23,0,10.1-3.35,11.58-8.39h0s-5.57-.01-5.57-.01c-1.17,2.53-2.73,3.87-5.5,3.87-4.05,0-5.14-3.1-5.14-6.55,0-4.89,2.32-10.4,7.25-10.4Z"/>
      <path class="st1" d="M498.51,152c-6.72,0-10.46,5.05-10.46,11.04,0,4.33,2.58,8.27,8.28,8.24,7.22-.03,10.51-5.39,10.51-10.9h0c0-4.84-3-8.38-8.33-8.38ZM496.64,167.03c-2.24,0-3.46-1.72-3.46-4.25h0c0-3.46,1.8-6.57,4.9-6.57,2.45,0,3.52,1.73,3.52,4.07,0,3.41-1.58,6.75-4.95,6.75Z"/>
      <path class="st1" d="M523.8,152.02c-3.24,0-4.94,1.61-5.86,2.88.11-.63.28-1.86.33-2.39h-4.95c-.26,1.42-.55,3.06-.84,4.61v.02s-2.61,13.67-2.61,13.67h5.01l1.66-8.83c.67-3.55,2.22-5.53,4.66-5.53s2.64,1.79,2.25,3.88l-2,10.47h5.04l2.12-10.92c1.05-5.5-1.19-7.86-4.81-7.86Z"/>
      <path class="st1" d="M542.6,147.01h-5.04l-1.11,5.49h-2.89l-.78,4.03h2.89l-1.74,8.88c-.67,3.53.39,5.52,4.34,5.52,1.19,0,2.37-.14,3.28-.42l.75-3.9c-.46.11-1.3.15-1.8.15-1.56,0-1.64-.74-1.33-2.3l1.54-7.93h3.7l.78-4.03h-3.7l1.11-5.49Z"/>
      <path class="st1" d="M553.97,156.05c.25-1.25.46-2.84.52-3.55h-4.83c-.23,1.62-.64,3.56-.99,5.39h-.01l-2.48,12.9h5.07l1.15-6.08c1.05-5.61,3.37-7.26,6.77-7.21l1.19-5.38c-2.96-.03-4.92,1.05-6.39,3.93Z"/>
      <path class="st1" d="M571.87,152.01c-6.18,0-8.02,3.13-8.6,5.8h5.16c.41-1.3,1.39-2.01,3.33-2.01,2.47,0,3.13,1.26,2.82,2.76l-.07.36c-1.15.03-2.97.06-4.27.2-4.21.43-9.1,1.54-9.1,6.82,0,2.3,1.31,5.34,5.65,5.34,3.01,0,4.77-1.08,5.88-2.7-.12.58-.24,1.63-.24,2.21h4.93c.07-.79.37-2.47.86-4.93h-.02l1.22-6.24c.74-3.7-.21-7.61-7.55-7.61ZM573.79,162.62c-.72,3.14-2.37,4.53-5.12,4.53-1.59,0-2.36-.75-2.36-1.81,0-2.02,2.28-2.52,4.05-2.71,1.05-.11,2.26-.18,3.47-.21l-.04.2Z"/>
      <polygon class="st1" points="601.07 164.37 601.07 164.38 601.09 164.38 601.07 164.37"/>
      <path class="st1" d="M593.75,156.14c2.35,0,2.98,1.52,3.07,2.87h5.09c.1-2.35-1.42-7-7.86-7-6.95,0-10.17,5.92-10.17,11.26,0,3.84,1.92,8.01,7.84,8.01,5.09,0,8.19-2.71,9.35-6.9h-5.08c-.82,1.79-1.99,2.71-3.85,2.71-2.15,0-3.12-1.54-3.12-3.99,0-3.32,1.61-6.96,4.73-6.96Z"/>
      <path class="st1" d="M615.06,147.01h-5.04l-1.11,5.49h-2.89l-.78,4.03h2.89l-1.74,8.88c-.67,3.53.39,5.52,4.34,5.52,1.19,0,2.37-.14,3.28-.42l.75-3.9c-.46.11-1.3.15-1.8.15-1.56,0-1.64-.74-1.33-2.3l1.54-7.93h3.7l.78-4.03h-3.7l1.11-5.49Z"/>
      <polygon class="st1" points="618.83 170.78 623.84 170.78 627.38 152.5 622.37 152.5 618.83 170.78"/>
      <polygon class="st1" points="623.01 149.06 628.05 149.06 628.93 144.44 623.89 144.44 623.01 149.06"/>
      <path class="st1" d="M643.88,152.02c-3.24,0-4.94,1.61-5.86,2.88.11-.63.28-1.86.33-2.39h-4.95c-.26,1.42-.55,3.06-.84,4.61v.02s-2.61,13.67-2.61,13.67h5.01l1.66-8.83c.67-3.55,2.22-5.53,4.66-5.53s2.64,1.79,2.25,3.88l-2,10.47h5.04l2.12-10.92c1.05-5.5-1.19-7.86-4.81-7.86Z"/>
      <path class="st1" d="M667.96,154.67c-.72-1.43-2.34-2.65-5.32-2.65-5.65,0-9.42,5.43-9.42,11.07,0,4.88,2.74,7.92,6.74,7.92,2.83,0,4.17-.96,5.35-2.38l-.23.97c-.7,3.09-1.62,5.24-4.87,5.24-2.74,0-3.37-1.22-3.57-2.44h-5.04c0,2.54,1.06,6.63,7.99,6.63,6.48,0,9.3-3.22,10.56-9.75h-.01l2.3-11.88c.32-1.64.7-3.39,1.02-4.89h-4.89c-.16.5-.44,1.48-.61,2.16ZM666.68,161.89c-.55,2.86-1.99,4.82-4.73,4.82-2.39,0-3.43-1.54-3.43-4.07,0-3.15,1.76-6.28,4.86-6.28,2.81,0,3.94,2.17,3.3,5.53Z"/>
      <path class="st1" d="M700.92,149.84c3.53,0,4.51,2.63,4.69,4.25h5.57c-.26-5.11-3.79-8.76-9.79-8.76-8.4,0-13.32,7.28-13.32,15.17,0,6.31,3.22,10.82,10.24,10.82,6.23,0,10.1-3.35,11.58-8.39h-.01s-5.57-.01-5.57-.01c-1.17,2.53-2.73,3.87-5.5,3.87-4.05,0-5.14-3.1-5.14-6.55,0-4.89,2.32-10.4,7.25-10.4Z"/>
      <path class="st1" d="M724.9,152c-6.72,0-10.46,5.05-10.46,11.04,0,4.33,2.58,8.27,8.28,8.24,7.22-.03,10.51-5.39,10.51-10.9h0c0-4.84-3-8.38-8.33-8.38ZM723.03,167.03c-2.24,0-3.46-1.72-3.46-4.25h-.01c0-3.46,1.8-6.57,4.9-6.57,2.45,0,3.52,1.73,3.52,4.07,0,3.41-1.58,6.75-4.95,6.75Z"/>
      <path class="st1" d="M759.91,152c-3.2,0-4.9,1.52-6.06,3.02-.39-1.58-1.37-3.02-4.27-3.02-2.55,0-4.07,1.21-5.25,2.73.14-.88.24-1.75.27-2.23h-4.89c-.23,1.44-.58,3.38-.9,5.11v-.02s-2.55,13.17-2.55,13.17h4.98l1.8-9.37c.54-2.84,1.76-4.98,3.98-4.98,2.34,0,2.2,2.2,1.86,3.88l-2.02,10.48h5.01l1.87-9.63c.58-3.03,1.77-4.72,3.87-4.72,2.32,0,2.24,2.2,1.9,3.89l-2.01,10.47h4.95l2.13-11.04c.97-5.02-.79-7.74-4.67-7.74Z"/>
      <path class="st1" d="M782.38,151.99c-2.93,0-4.5,1.15-5.72,2.65.18-1.05.27-1.73.3-2.15h-4.95c-.14.92-.48,2.78-.96,5.29l-4.03,20.71h5.01l1.89-9.66v-.02c.65,1.15,2.07,2.45,5.15,2.45,6.32,0,9.73-5.61,9.73-11.6,0-4.2-2.36-7.67-6.42-7.67ZM778.53,166.87c-2.59,0-3.88-1.86-3.32-5.23.54-3.36,2.56-5.28,4.97-5.28s3.34,1.69,3.34,3.95c0,3.69-1.78,6.56-4.99,6.56Z"/>
      <path class="st1" d="M803.07,152.01c-6.18,0-8.02,3.13-8.6,5.8h5.16c.41-1.3,1.39-2.01,3.33-2.01,2.47,0,3.13,1.26,2.82,2.76l-.07.36c-1.15.03-2.97.06-4.27.2-4.21.43-9.1,1.54-9.1,6.82,0,2.3,1.31,5.34,5.65,5.34,3.01,0,4.77-1.08,5.88-2.7-.12.58-.24,1.63-.24,2.21h4.93c.07-.79.37-2.47.86-4.93h-.02l1.22-6.24c.74-3.7-.21-7.61-7.55-7.61ZM805,162.62c-.72,3.14-2.37,4.53-5.12,4.53-1.59,0-2.36-.75-2.36-1.81,0-2.02,2.28-2.52,4.05-2.71,1.05-.11,2.26-.18,3.47-.21l-.04.2Z"/>
      <path class="st1" d="M828.47,152.02c-3.24,0-4.94,1.61-5.86,2.88.11-.63.28-1.86.33-2.39h-4.95c-.26,1.42-.55,3.06-.84,4.61v.02s-2.61,13.67-2.61,13.67h5.01l1.66-8.83c.67-3.55,2.22-5.53,4.66-5.53s2.64,1.79,2.25,3.88l-2,10.47h5.04l2.12-10.92c1.05-5.5-1.19-7.86-4.81-7.86Z"/>
      <path class="st1" d="M851.42,152.5c-3.47,7.37-5.74,12.15-6.59,14.04h-.09c-.18-2.03-.72-6.79-1.91-14.04h-5.18l3.71,19.35c-.89,1.66-1.8,2.49-3.53,2.49-.82,0-1.45-.08-2.04-.19l-.93,4.52c.77.2,2.41.35,3.14.35,4.95,0,6.19-2.05,10.23-9.88l8.65-16.64h-5.46Z"/>
    </g>
  </g>
</svg>