<?xml version="1.0" encoding="UTF-8"?>
<svg id="Layer_1" xmlns="http://www.w3.org/2000/svg" version="1.1" viewBox="0 0 195.1 174">
  <!-- Generator: Adobe Illustrator 29.6.1, SVG Export Plug-In . SVG Version: 2.1.1 Build 9)  -->
  <defs>
    <style>
      .st0 {
        fill: #0c5577;
      }

      .st1 {
        fill: #fea00c;
      }
    </style>
  </defs>
  <path class="st1" d="M173.84,71.11h-79.54c-1.25,0-1.87,1.51-.99,2.39l5.65,5.65c.88.88.26,2.39-.99,2.39H1.4c-1.68,0-1.94,2.41-.3,2.77l126.54,27.48c1.28.28,2.21-1.21,1.4-2.24l-5.24-6.64c-.73-.92-.07-2.27,1.1-2.27h44.75c.69,0,1.28-.5,1.38-1.18l4.19-26.74c.13-.85-.52-1.62-1.38-1.62Z"/>
  <path class="st0" d="M178.35,144.96l-3.74,27.83c-.09.69-.69,1.21-1.39,1.21H49.03c-.85,0-1.5-.75-1.39-1.59l8.99-66.77c.11-.81.88-1.35,1.68-1.18l36.92,7.88c.73.16,1.21.85,1.09,1.59l-4.43,27.82c-.14.85.52,1.62,1.38,1.62h83.71c.85,0,1.5.75,1.39,1.59Z"/>
  <path class="st0" d="M195.09,1.59l-3.74,27.83c-.09.69-.69,1.21-1.39,1.21h-81.15c-.69,0-1.28.5-1.38,1.19l-4.86,31.56c-.11.7-.72,1.21-1.43,1.19l-24.38-.81c-1.38-.05-1.98,1.72-.87,2.53l6.56,4.8c1.09.8.53,2.53-.83,2.53h-18.06c-.85,0-1.5-.75-1.39-1.58L71.59,1.22c.09-.7.69-1.22,1.39-1.22h120.72c.85,0,1.5.75,1.39,1.59Z"/>
</svg>